HIERARCHY
ROOT root
{
	OFFSET 0.000000 0.000000 0.000000
	CHANNELS 6 Xposition Yposition Zposition Zrotation Yrotation Xrotation
	JOINT lhip
	{
		OFFSET 0.058581 -0.082280 -0.017664
		CHANNELS 3 Zrotation Yrotation Xrotation
		JOINT lknee
		{
			OFFSET 0.043451 -0.386469 0.008037
			CHANNELS 3 Zrotation Yrotation Xrotation
			JOINT lankle
			{
				OFFSET -0.014790 -0.426874 -0.037428
				CHANNELS 3 Zrotation Yrotation Xrotation
				JOINT ltoe
				{
					OFFSET 0.041054 -0.060286 0.122042
					CHANNELS 3 Zrotation Yrotation Xrotation
					End Site
					{
						OFFSET 0.000000 0.000000 0.000000
					}
				}
			}
		}
	}
	JOINT rhip
	{
		OFFSET -0.060310 -0.090513 -0.013543
		CHANNELS 3 Zrotation Yrotation Xrotation
		JOINT rknee
		{
			OFFSET -0.043257 -0.383688 -0.004843
			CHANNELS 3 Zrotation Yrotation Xrotation
			JOINT rankle
			{
				OFFSET 0.019056 -0.420046 -0.034562
				CHANNELS 3 Zrotation Yrotation Xrotation
				JOINT rtoe
				{
					OFFSET -0.034840 -0.062106 0.130323
					CHANNELS 3 Zrotation Yrotation Xrotation
					End Site
					{
						OFFSET 0.000000 0.000000 0.000000
					}
				}
			}
		}
	}
	JOINT lowerback
	{
		OFFSET 0.004439 0.124404 -0.038385
		CHANNELS 3 Zrotation Yrotation Xrotation
		JOINT upperback
		{
			OFFSET 0.004488 0.137956 0.026820
			CHANNELS 3 Zrotation Yrotation Xrotation
			JOINT chest
			{
				OFFSET -0.002265 0.056032 0.002855
				CHANNELS 3 Zrotation Yrotation Xrotation
				JOINT lowerneck
				{
					OFFSET -0.013390 0.211636 -0.033468
					CHANNELS 3 Zrotation Yrotation Xrotation
					JOINT upperneck
					{
						OFFSET 0.010113 0.088937 0.050410
						CHANNELS 3 Zrotation Yrotation Xrotation
						End Site
						{
							OFFSET 0.000000 0.000000 0.000000
						}
					}
				}
				JOINT lclavicle
				{
					OFFSET 0.071702 0.114000 -0.018898
					CHANNELS 3 Zrotation Yrotation Xrotation
					JOINT lshoulder
					{
						OFFSET 0.122921 0.045205 -0.019046
						CHANNELS 3 Zrotation Yrotation Xrotation
						JOINT lelbow
						{
							OFFSET 0.255332 -0.015649 -0.022946
							CHANNELS 3 Zrotation Yrotation Xrotation
							JOINT lwrist
							{
								OFFSET 0.265709 0.012698 -0.007375
								CHANNELS 3 Zrotation Yrotation Xrotation
								End Site
								{
									OFFSET 0.000000 0.000000 0.000000
								}
							}
						}
					}
				}
				JOINT rclavicle
				{
					OFFSET -0.082954 0.112472 -0.023707
					CHANNELS 3 Zrotation Yrotation Xrotation
					JOINT rshoulder
					{
						OFFSET -0.113228 0.046853 -0.008472
						CHANNELS 3 Zrotation Yrotation Xrotation
						JOINT relbow
						{
							OFFSET -0.260127 -0.014369 -0.031269
							CHANNELS 3 Zrotation Yrotation Xrotation
							JOINT rwrist
							{
								OFFSET -0.269108 0.006794 -0.006027
								CHANNELS 3 Zrotation Yrotation Xrotation
								End Site
								{
									OFFSET 0.000000 0.000000 0.000000
								}
							}
						}
					}
				}
			}
		}
	}
}
MOTION
Frames: 14
Frame Time: 0.033333
0.415238 0.182677 1.016207 92.354010 0.236526 93.696971 6.243218 4.293993 1.434971 -2.504862 -7.426729 1.204720 -3.526668 13.074879 -5.727857 0.000000 -0.000000 0.000000 -6.386275 -5.866749 3.056546 0.425827 3.277756 -0.081021 9.399613 -12.093422 -6.098024 0.000000 -0.000000 0.000000 -5.772120 3.325184 -8.443409 1.037423 -1.360510 -3.785895 0.218255 1.081097 3.083305 3.111516 1.260653 16.332659 9.221756 -4.568077 0.164309 1.809469 16.840907 -16.610728 -1.711891 -19.549472 -13.274166 28.015374 -26.646725 -38.651358 -13.686408 -23.583703 -6.890709 -3.496482 -13.668584 -8.795122 5.496484 0.816350 -16.923536 -37.551725 34.231419 -43.944539 14.000145 14.368043 -11.797967 
0.415317 0.183059 1.016365 92.364975 0.196713 93.722986 6.208714 4.333353 1.436157 -2.532444 -7.452043 1.132117 -3.554992 13.074881 -5.683975 0.000000 -0.000000 0.000000 -6.422379 -5.895737 3.007489 0.386350 3.282832 -0.040732 9.449593 -12.108094 -6.125459 0.000000 -0.000000 0.000000 -5.713814 3.324957 -8.411961 1.108769 -1.344209 -3.796108 0.305031 1.146879 3.173163 3.178107 1.308423 16.663465 9.130903 -4.607812 0.010045 2.246600 16.762100 -16.861670 -1.459377 -19.816688 -13.819922 28.009071 -25.836588 -38.487324 -13.132658 -23.448858 -6.409379 -3.970229 -13.541905 -8.934972 5.320115 1.305457 -17.363777 -37.503107 33.164416 -43.538136 13.142596 14.285926 -10.977593 
0.415147 0.183453 1.016519 92.361266 0.157377 93.722867 6.148664 4.312558 1.396330 -2.526244 -7.396455 1.178676 -3.549422 13.044771 -5.671719 0.000000 -0.000000 0.000000 -6.453407 -5.947853 2.930242 0.334119 3.312233 0.074750 9.486383 -12.103147 -6.192284 0.000000 -0.000000 0.000000 -5.610824 3.374896 -8.252215 1.138218 -1.331007 -3.926196 0.329537 1.178844 3.278849 3.333402 1.402344 16.818388 9.114871 -4.820674 0.049671 2.929332 16.700532 -17.063608 -1.215488 -20.249014 -14.480534 28.052074 -25.176597 -38.203820 -13.139636 -23.506873 -5.867427 -4.442888 -13.402709 -8.961408 5.043383 1.890424 -17.935248 -37.778993 32.426847 -43.189103 12.630850 14.043236 -9.961605 
0.414982 0.183805 1.016856 92.367989 0.143978 93.658627 6.144308 4.318760 1.397061 -2.574378 -7.388391 1.260095 -3.538479 13.059086 -5.641076 0.000000 -0.000000 0.000000 -6.482603 -6.010688 2.922731 0.325949 3.417131 0.172988 9.541090 -12.165561 -6.236875 0.000000 -0.000000 0.000000 -5.484460 3.455048 -7.933632 1.167286 -1.310721 -4.158128 0.416913 1.209864 3.385739 3.475156 1.368859 17.084271 9.076637 -4.879227 -0.142645 3.608342 16.509560 -17.263183 -0.603357 -20.649309 -15.142625 27.991329 -24.916576 -37.752113 -13.166894 -23.408162 -5.115803 -5.148703 -13.231550 -9.109015 4.592361 2.348177 -18.358878 -37.891506 32.143375 -42.830234 12.184238 13.988627 -9.617123 
0.414590 0.184200 1.017390 92.418539 0.157127 93.567810 6.141851 4.298271 1.375305 -2.565436 -7.385113 1.388539 -3.581921 13.025170 -5.580934 0.000000 -0.000000 0.000000 -6.471236 -6.040215 2.938605 0.305245 3.486400 0.281694 9.573639 -12.244799 -6.245024 0.000000 -0.000000 0.000000 -5.333510 3.478553 -7.559317 1.223989 -1.348402 -4.364102 0.524323 1.245474 3.496836 3.554948 1.441456 17.207011 9.034795 -5.095992 -0.385253 4.454431 16.322425 -17.430879 0.051769 -20.993614 -15.657461 27.945603 -25.070552 -37.219979 -13.389496 -23.606775 -4.638457 -6.002994 -12.972828 -9.205569 4.002028 2.947477 -18.759079 -38.145629 32.006549 -42.430557 11.754266 14.053720 -9.024769 
0.414095 0.184569 1.017904 92.447244 0.149427 93.470947 6.118729 4.328704 1.328963 -2.562671 -7.468800 1.571544 -3.594945 12.999063 -5.535133 0.000000 -0.000000 0.000000 -6.499739 -6.118262 2.926298 0.316125 3.559968 0.426001 9.605315 -12.327110 -6.249169 0.000000 -0.000000 0.000000 -5.205763 3.513481 -7.162006 1.247115 -1.353393 -4.677240 0.625229 1.287408 3.740654 3.690426 1.436885 17.292133 8.990320 -5.278528 -0.754073 5.497577 16.050366 -17.527551 0.826032 -21.487553 -16.142489 27.778772 -25.324839 -36.840595 -13.015034 -23.624086 -4.496727 -6.971801 -12.578033 -9.432137 3.350490 3.390984 -19.037767 -38.262144 32.282386 -41.875693 11.104431 13.971634 -8.365567 
0.413251 0.184800 1.018338 92.417073 0.171213 93.379775 6.133317 4.370394 1.279386 -2.566001 -7.436540 1.730418 -3.630297 12.956359 -5.450707 0.000000 -0.000000 0.000000 -6.485629 -6.173971 2.825536 0.297517 3.659554 0.665085 9.682477 -12.335359 -6.252218 0.000000 -0.000000 0.000000 -5.076623 3.508055 -6.685546 1.297661 -1.329271 -4.947972 0.733473 1.353744 3.859339 3.753453 1.518022 17.240950 8.979109 -5.570296 -1.155800 6.773008 15.765445 -17.374784 1.443577 -22.085318 -16.764312 27.731463 -25.690973 -36.318257 -12.762786 -23.894555 -4.638895 -7.954670 -12.167364 -9.302617 2.689145 3.769289 -19.613074 -38.308280 33.028613 -41.312563 10.304952 14.105470 -8.317162 
0.412268 0.185074 1.018745 92.344501 0.242910 93.259386 6.199992 4.435700 1.248819 -2.559337 -7.381482 1.956869 -3.699224 12.894452 -5.423560 0.000000 -0.000000 0.000000 -6.464675 -6.200544 2.702441 0.369682 3.774076 1.017055 9.724590 -12.351965 -6.286042 0.000000 -0.000000 0.000000 -4.872145 3.562559 -6.200396 1.319049 -1.312536 -5.026090 0.820233 1.416556 3.860573 4.032493 1.802340 17.194587 8.840251 -5.941066 -1.560437 7.839845 15.279559 -17.291598 2.166956 -22.593413 -17.301067 27.935440 -26.392954 -36.161885 -12.706404 -24.198216 -4.535099 -9.008553 -11.475745 -9.048567 2.360431 3.896815 -19.515253 -39.046974 33.598198 -41.096590 9.189784 13.991668 -8.460256 
0.411159 0.185241 1.019153 92.349545 0.279261 93.096548 6.241232 4.403335 1.228798 -2.563023 -7.376659 2.167790 -3.754524 12.943575 -5.448947 0.000000 -0.000000 0.000000 -6.443506 -6.245750 2.644664 0.390507 3.877978 1.320595 9.775564 -12.442862 -6.298210 0.000000 -0.000000 0.000000 -4.779396 3.546740 -5.545323 1.305319 -1.301928 -5.360613 0.944545 1.469517 4.152791 4.091224 1.691462 16.946089 8.856559 -5.817287 -1.944640 8.827594 15.010789 -17.430134 2.828482 -23.621626 -17.963039 28.023282 -26.986807 -35.678644 -12.714117 -24.245315 -4.801036 -9.798242 -11.417850 -9.432572 1.893880 5.043736 -20.212430 -38.740286 34.472022 -40.267393 9.516472 13.824850 -8.275729 
0.409810 0.185290 1.019530 92.337863 0.315442 93.044490 6.308688 4.454353 1.050414 -2.608102 -7.354856 2.419336 -3.792437 12.884896 -5.390166 0.000000 -0.000000 0.000000 -6.397225 -6.277624 2.437534 0.406718 3.911855 1.644383 9.826320 -12.447541 -6.291878 0.000000 -0.000000 0.000000 -4.766664 3.553801 -5.101716 1.407187 -1.308387 -5.435065 1.101794 1.506928 4.132284 3.936265 1.747665 17.027080 8.986955 -5.952592 -2.345864 9.650330 14.374831 -17.380183 3.493051 -24.303548 -18.548246 27.991122 -27.656596 -35.404995 -12.430537 -24.250263 -4.901093 -10.501011 -10.792641 -9.442672 1.368196 5.610449 -20.593755 -38.895083 35.082046 -40.216520 8.644665 14.097097 -8.279236 
0.408400 0.185359 1.019868 92.383169 0.334949 92.956635 6.337293 4.483715 0.910507 -2.602344 -7.313265 2.648289 -3.827659 12.798903 -5.363563 0.000000 -0.000000 0.000000 -6.371039 -6.324044 2.263723 0.427564 3.846109 2.002756 9.890044 -12.420187 -6.315484 0.000000 -0.000000 0.000000 -4.727504 3.547611 -4.617793 1.489213 -1.372871 -5.445411 1.237023 1.479798 4.087601 3.992814 1.953728 17.085509 8.990497 -6.057956 -2.586436 10.524130 13.746675 -17.351400 3.798603 -25.061920 -19.108151 28.010194 -27.939186 -34.929864 -12.822488 -24.459679 -4.730096 -11.233931 -10.164567 -9.436866 1.077134 6.318242 -20.906150 -39.033375 35.590420 -39.720660 8.375721 14.383035 -8.047160 
0.406816 0.185266 1.020380 92.349594 0.355222 92.817897 6.367061 4.522723 0.861863 -2.592747 -7.266590 2.814283 -3.856682 12.674477 -5.328658 0.000000 -0.000000 0.000000 -6.361297 -6.356818 2.082154 0.468901 3.805743 2.396214 9.915350 -12.326995 -6.328758 0.000000 -0.000000 0.000000 -4.743912 3.563926 -4.108957 1.602786 -1.409148 -5.306100 1.374035 1.479976 4.043023 4.133566 2.181843 17.063652 8.979994 -6.110722 -2.826609 11.336842 13.297146 -17.420190 3.965440 -25.848208 -19.607507 27.914427 -28.468724 -34.548461 -13.909214 -24.790654 -4.643315 -11.732587 -9.694660 -9.488179 0.709992 7.252738 -21.265418 -39.080230 35.864373 -39.436047 8.594059 14.347535 -7.792831 
0.405225 0.185068 1.020741 92.242186 0.413548 92.679044 6.422516 4.584568 0.837098 -2.546504 -7.197532 2.952484 -3.879235 12.633974 -5.269277 0.000000 -0.000000 0.000000 -6.308610 -6.328389 1.892726 0.512072 3.829036 2.792273 9.923549 -12.288834 -6.378067 0.000000 -0.000000 0.000000 -4.651935 3.564335 -3.603657 1.698295 -1.416362 -5.174439 1.500287 1.497063 4.024368 4.190099 2.338103 17.098261 8.867071 -6.308064 -3.012274 12.005120 12.810717 -17.468424 4.171635 -26.392392 -19.929201 27.772448 -28.856553 -33.929315 -14.208851 -25.007915 -4.441197 -12.360283 -9.091569 -9.448728 0.527405 7.899367 -21.471998 -39.116919 36.088995 -39.113496 8.307144 14.522426 -7.728905 
0.403586 0.184899 1.020695 91.954319 0.506034 92.655950 6.517539 4.700070 0.744379 -2.526419 -7.038959 3.010617 -3.946066 12.657565 -5.137480 0.000000 -0.000000 0.000000 -6.242811 -6.240185 1.481230 0.572278 3.905942 3.266791 9.983768 -12.172114 -6.400252 0.000000 -0.000000 0.000000 -4.489465 3.637373 -3.338891 1.769837 -1.339612 -5.029681 1.633530 1.489708 4.077029 4.284622 2.550437 17.385150 8.754247 -6.441898 -3.333141 12.781033 12.342086 -17.522123 4.002190 -26.975121 -20.144262 27.690052 -28.896909 -33.176676 -13.147823 -24.425724 -3.845175 -13.040351 -8.420285 -9.121753 0.225820 8.473644 -21.947876 -38.776124 36.236780 -38.462195 7.601044 14.448504 -7.631495 
